<svg height="300px" width="300px" fill="#000000" xmlns="http://www.w3.org/2000/svg" xmlns:xlink="http://www.w3.org/1999/xlink" version="1.1" x="0px" y="0px" viewBox="0 0 100 100" style="enable-background:new 0 0 100 100;" xml:space="preserve"><style type="text/css">
	.st0{display:none;}
	.st1{display:inline;}
	.st2{fill:#000000;}
	.st3{fill:none;}
	.st4{display:inline;fill:#000000;}
	.st5{fill:#000000;}
	.st6{display:inline;opacity:0.65;fill:#000000;}
</style><g class="st0"><path class="st4" d="M83.5,13.3L83.5,13.3l-39.6,0.1v-0.1h-9.4v55.3c-3-1.3-6.5-2-10.3-2c-10.9,0-19.7,6.2-19.7,13.9   s8.8,13.9,19.7,13.9s19.7-6.2,19.7-13.9V32.2h39.6v36.4c-3-1.3-6.5-2-10.3-2c-10.9,0-19.7,6.2-19.7,13.9s8.8,13.9,19.7,13.9   s19.7-6.2,19.7-13.9V13.3H83.5z"/></g><g class="st0"><rect y="0.3" class="st6" width="100" height="100"/></g><g><g><path d="M91.6,79.8c-0.7-8.1-4.1-16.2-6.5-23.9c-2-6.7-4-13.5-6.2-20.2c-0.1-0.2,0-0.4,0.2-0.5c1.5-1.3,1-4.3-1.3-4.3    c-0.2,0-0.4-0.1-0.5-0.3c-0.3-0.8-0.5-1.6-0.8-2.3c-0.2-0.6-0.5-1-0.9-1.3c2.7-0.3,5.4-0.8,8.1-1.3c3.2-0.6,1.9-5.3-1.2-4.8    c-10,1.4-20.1,2-30.2,1.2c-4.7-0.4-9.5-0.9-14-2.2c-2.4-0.7-4.8-1.7-7.4-1.5c-11.1,0.7-2.8,17.3-0.7,22.4    c3.4,8.5,6.4,17.1,9.5,25.7c0.6,1.6,1.3,3.3,1.9,5c-1-1.1-2.1-2.2-3.3-3.2c0,0,0,0,0,0c-0.1-0.1-0.1-0.1-0.2-0.2    c-5.2-4-11-8.1-17.9-7.6c-5,0.4-10.2,3.2-11.9,8.1c-0.3,0.3-0.4,0.6-0.3,1.1C4.7,82.9,22.6,88.3,32.3,89.6    c5.7,0.7,11.9-0.4,14.6-6.1c2.8-6.1-0.4-13.2-2.5-19c-3.1-8.5-6-17.1-9.3-25.5c-0.6-1.6-1.3-3.1-2-4.7c-0.2-0.4,0.2-0.8,0.6-0.6    c5.7,2.1,12.9,2.8,18.2,3.3c7,0.7,14.2,0.7,21.1-0.3c0.2,0,0.5,0.1,0.5,0.3c2.5,8.5,5.2,16.9,7.8,25.3c0.4,1.3,1,2.9,1.7,4.8    c-0.4-0.4-0.8-0.8-1.3-1.2c-0.3-0.3-0.6-0.3-0.9-0.3c-4.1-8.1-16.6-8.5-22.3-1.1c-7.9,10.1-1.7,23.5,8.5,29    c6.3,3.4,13.4,3.3,18.4,0.2c0,0,0.1,0.1,0.1,0.1c1,1.2,2.8-0.3,2.2-1.6c0-0.1-0.1-0.1-0.1-0.2C90.4,89.3,92.1,85.2,91.6,79.8z     M37.9,70.2c1.4,2.7,3.2,5.3,5.1,7.6c0.1,0.1,0.1,0.2,0.1,0.3c0,0.3,0,0.7-0.1,1c0,0.3-0.1,0.6-0.2,0.9c-1.9-2.6-3.9-5.2-5.9-7.7    c-1-1.2-2-2.7-3-4c1.2,0.6,2.3,1.2,3.3,1.7C37.5,70.2,37.7,70.3,37.9,70.2z M39.9,84.1c-0.2,0.1-0.4,0-0.6-0.1    c-2.7-3.2-5.8-6.1-8.4-9.3c-2.3-2.8-4.2-6.3-6.7-9c-0.3-0.3,0-0.9,0.5-0.8c1.4,0.3,2.9,0.8,4.3,1.3c0,0,0,0,0,0    c1,3,3.5,5.7,5.3,8.3c2.1,2.9,4.3,5.8,6.5,8.7c0.1,0.1,0.1,0.1,0.2,0.2C40.7,83.6,40.3,83.9,39.9,84.1z M14,67.5    c1.2,3,4.1,5.9,6,8.2c0.8,1,1.6,1.9,2.5,2.9c-1.4-1.1-3-2.1-4.4-3.2c-1.9-1.6-3.7-3.3-5.5-5c-0.1-0.1-0.2-0.3-0.1-0.5    c0.2-0.4,0.4-0.8,0.7-1.3C13.4,68.2,13.7,67.9,14,67.5z M25.4,82.5c0.1-0.3,0.5-0.4,0.7-0.2c0.7,0.6,1.5,1.2,2.3,1.8    c-0.9-0.2-1.8-0.4-2.9-0.7c-0.3-0.1-0.4-0.4-0.3-0.7C25.3,82.6,25.3,82.6,25.4,82.5z M12.3,74.8c1.1,1.1,2.2,2.1,3.3,3.1    c1,0.9,2.1,2,3.3,3C15.8,79.3,13.2,77.3,12.3,74.8z M31.7,84.7c-0.3-0.1-0.5-0.4-0.3-0.7c0.3-0.5,0.3-1.1-0.1-1.6    c-2.5-3.3-5.9-5.9-8.6-8.9c-2-2.2-3.8-5.3-6.1-7.3c-0.3-0.2-0.2-0.6,0.1-0.8c1.6-0.8,3.3-1.1,5.2-1c-0.1,0.2-0.2,0.4-0.2,0.6    c0.8,4.3,4.2,8.3,6.7,11.8c1.9,2.5,3.9,5.1,6.2,7.4c0.3,0.3,0.1,0.9-0.4,0.8C33.3,84.9,32.5,84.8,31.7,84.7z M71.6,30.3    c0.1,0.5,0.3,1,0.4,1.5c-0.1,0-0.2,0-0.4,0c-1.2-0.9-2.4-1.7-3.5-2.7c-0.5-0.4-1-0.9-1.5-1.4c1.6-0.1,3.1-0.2,4.7-0.3    c0.4,0,0.6,0.4,0.5,0.7C71.5,28.8,71.4,29.5,71.6,30.3z M52.2,32.6c-1.9-1.6-3.8-3.1-5.6-4.8c-0.3-0.3-0.1-0.9,0.4-0.8    c0.7,0.1,1.3,0.2,2,0.2c0.1,0,0.2,0.1,0.3,0.1c1.9,1.8,3.7,3.7,5.6,5.5c-0.8,0-1.6-0.1-2.4-0.1C52.4,32.7,52.3,32.6,52.2,32.6z     M38.4,25.4c1.3,0.3,2.7,0.6,4.1,0.8c0,0,0.1,0.1,0.1,0.1c1.2,1.7,2.5,3.3,3.8,4.9c0.3,0.3,0,0.9-0.4,0.8c0,0-0.1,0-0.1,0    c-2.7-2-4.9-3.6-7.6-5.5c-0.8-1.6-2.7,0.2-1.7,1.1c0.9,0.8,1.8,1.7,2.7,2.5c0.4,0.3,0.1,0.9-0.4,0.8c-1.3-0.3-2.5-0.6-3.8-0.9    c-0.1-0.1-0.2-0.2-0.3-0.3c-1.1-0.9-2.2-1.7-3.2-2.7c-0.4-0.4-0.8-0.8-1.2-1.3c0-0.5,0.1-0.9,0.2-1.2C31.6,22.4,36.4,25,38.4,25.4    z M59.3,32.7c-1.6-1.4-3.2-2.8-4.8-4.2c-0.4-0.3-0.1-0.9,0.3-0.8c2.3,0.1,4.5,0.2,6.8,0.2c0.1,0,0.3,0.1,0.4,0.2    c1.1,1.4,2.5,2.6,3.9,3.7c0.3,0.2,0.5,0.4,0.8,0.6c-2.3,0.2-4.7,0.4-7.1,0.4C59.5,32.8,59.4,32.7,59.3,32.7z M80,69.3    c0.2,0.5,0.8,0.7,1.3,0.6c0.2,0,0.4,0,0.5,0.2c1.1,1.7,2.4,3.4,3.7,4.9c0.1,0.1,0.1,0.1,0.1,0.2c0.2,0.7,0.3,1.3,0.4,1.9    c-3.4-4.6-6.9-9.1-10.9-13.2C77.3,65.2,79,67,80,69.3z M70.9,89.7c-3.5-6.4-7-12.7-10.2-19.2c-0.1-0.1-0.1-0.3,0-0.4    c0.2-0.7,0.5-1.3,0.9-1.9c0.2-0.3,0.7-0.3,0.9,0c3.3,7.4,7.1,14.7,11.2,21.7c0.2,0.4-0.1,0.8-0.6,0.7c-0.6-0.2-1.3-0.4-1.9-0.6    C71.1,89.9,71,89.8,70.9,89.7z M59.8,75.5c0-0.5,0-1,0-1.4c1.8,4.3,3.7,8.5,6,12.5C62.5,83.7,60.1,79.6,59.8,75.5z M80.9,90.5    c-1,0.3-2.1,0.5-3.2,0.6c0-0.1-0.1-0.3-0.1-0.4c-3.9-8.6-8.6-17-13.6-25c-0.1-0.2-0.1-0.5,0.1-0.6c0.5-0.4,1-0.8,1.5-1.1    c0.2-0.1,0.5,0,0.7,0.2c4.9,8.5,10.1,17.2,15.9,25.2c0.2,0.2,0.1,0.6-0.2,0.7C81.7,90.3,81.3,90.4,80.9,90.5z M69.1,63.6    c-0.2-0.3,0-0.7,0.4-0.8c0.7-0.1,1.4,0,2.1,0c-0.1,0.3,0,0.6,0.2,0.8c4.8,6.7,9.8,13.2,14.6,20c0.1,0.1,0.1,0.2,0.1,0.4    c-0.2,1-0.4,1.8-0.8,2.7c-0.2,0.4-0.7,0.4-0.9,0C80,78.7,74.5,71,69.1,63.6z"/></g></g></svg>